<?xml version="1.0" standalone="no"?><!DOCTYPE svg PUBLIC "-//W3C//DTD SVG 1.1//EN" "http://www.w3.org/Graphics/SVG/1.1/DTD/svg11.dtd"><svg t="1620804667119" class="icon" viewBox="0 0 1063 1024" version="1.1" xmlns="http://www.w3.org/2000/svg" p-id="3065" xmlns:xlink="http://www.w3.org/1999/xlink" width="49.828125" height="48"><defs><style type="text/css"></style></defs><path d="M1010.701299 531.948052c-6.649351-13.298701-19.948052-13.298701-26.597403-6.649351L565.194805 731.428571c-13.298701 6.649351-39.896104 6.649351-59.844156 0L86.441558 525.298701h-13.298701c-13.298701 0-13.298701 0-19.948052 6.649351l-13.298701 26.597403c-6.649351 13.298701 0 26.597403 6.649351 26.597402L465.454545 791.272727c19.948052 6.649351 39.896104 13.298701 59.844156 13.298702 19.948052 0 46.545455-6.649351 59.844156-13.298702l418.909091-206.12987c6.649351 0 6.649351-6.649351 13.298701-13.298701v-13.298701l-6.64935-26.597403z" p-id="3066"></path><path d="M1010.701299 731.428571c-6.649351-13.298701-19.948052-13.298701-26.597403-6.64935L565.194805 930.909091c-13.298701 6.649351-39.896104 6.649351-59.844156 0l-418.909091-206.12987h-13.298701c-6.649351 0-6.649351 6.649351-13.298701 13.298701l-13.298701 26.597403c-6.649351 13.298701 0 26.597403 6.64935 26.597402L472.103896 997.402597c13.298701 0 39.896104 6.649351 59.844156 6.649351 19.948052 0 46.545455-6.649351 59.844156-13.298701l418.909091-206.12987c6.649351 0 6.649351-6.649351 13.298701-13.298702v-13.298701l-13.298701-26.597403zM1010.701299 232.727273L591.792208 26.597403C558.545455 6.649351 505.350649 6.649351 472.103896 26.597403L53.194805 232.727273c-33.246753 19.948052-53.194805 46.545455-53.194805 79.792208s19.948052 59.844156 53.194805 79.792207L472.103896 598.441558c13.298701 6.649351 39.896104 6.649351 59.844156 6.649351 19.948052 0 46.545455-6.649351 59.844156-13.298701l418.909091-206.12987c33.246753-13.298701 53.194805-39.896104 53.194805-73.142857 0-33.246753-19.948052-59.844156-53.194805-79.792208z m-571.844156 132.987013l-19.948052 19.948052c-13.298701 6.649351-26.597403 6.649351-39.896104 6.64935-13.298701 0-26.597403 0-39.896104-6.64935l-19.948052-19.948052c-6.649351-6.649351-13.298701-19.948052-13.298701-33.246754h19.948052c6.649351 6.649351 6.649351 13.298701 13.298701 19.948052 6.649351 6.649351 6.649351 13.298701 19.948052 13.298702 6.649351 6.649351 19.948052 6.649351 26.597403 6.64935 6.649351 0 19.948052 0 26.597402-6.64935 6.649351 0 13.298701-6.649351 13.298702-13.298702s6.649351-6.649351 6.64935-13.298701 0-13.298701-6.64935-13.298701c0-6.649351-6.649351-6.649351-13.298702-13.298701-13.298701 0-19.948052 0-39.896104-6.649351-13.298701 0-26.597403-6.649351-33.246753-6.649351l-19.948052-19.948052c-6.649351-6.649351-6.649351-13.298701-6.64935-19.948052 0-6.649351 0-19.948052 6.64935-26.597402 6.649351-6.649351 13.298701-13.298701 26.597403-13.298702 6.649351-6.649351 19.948052-6.649351 33.246753-6.64935s26.597403 0 33.246753 6.64935c13.298701 6.649351 19.948052 13.298701 19.948052 19.948052 6.649351 6.649351 6.649351 13.298701 13.298702 26.597403h-26.597403c0-13.298701-6.649351-19.948052-13.298701-26.597403-6.649351-6.649351-13.298701-6.649351-26.597403-6.64935s-26.597403 0-33.246753 6.64935c-6.649351 6.649351-6.649351 13.298701-6.649351 19.948052 0 6.649351 0 13.298701 6.649351 13.298702 6.649351 6.649351 13.298701 6.649351 33.246753 13.298701s33.246753 6.649351 39.896104 13.298701c13.298701 6.649351 19.948052 13.298701 19.948052 19.948052 6.649351 6.649351 6.649351 13.298701 6.649351 19.948052 0 13.298701 0 19.948052-6.649351 26.597403z m179.532467-26.597403c0 13.298701-6.649351 19.948052-13.298701 26.597403 0 6.649351-6.649351 6.649351-13.298701 13.298701s-13.298701 6.649351-19.948052 6.649351H478.753247V212.779221h93.090909c13.298701 0 19.948052 6.649351 26.597402 13.298701 6.649351 6.649351 13.298701 19.948052 19.948052 33.246753 6.649351 13.298701 6.649351 26.597403 6.649351 39.896104 0 13.298701 0 26.597403-6.649351 39.896104z m152.935065 53.194805l-59.844156-86.441558-26.597402 26.597402v59.844156h-26.597403V212.779221h26.597403v86.441558l86.441558-86.441558h26.597403l-73.142857 73.142857 79.792208 106.38961h-33.246754z" p-id="3067"></path><path d="M571.844156 239.376623c-6.649351 0-13.298701-6.649351-33.246753-6.64935h-33.246754v132.987013h66.493507c6.649351 0 13.298701-6.649351 13.298701-6.649351 6.649351-6.649351 6.649351-13.298701 13.298701-26.597403 0-6.649351 6.649351-19.948052 6.649351-33.246753 0-19.948052 0-33.246753-6.649351-39.896104-13.298701-13.298701-19.948052-19.948052-26.597402-19.948052z" p-id="3068"></path></svg>