<?xml version="1.0" standalone="no"?><!DOCTYPE svg PUBLIC "-//W3C//DTD SVG 1.1//EN" "http://www.w3.org/Graphics/SVG/1.1/DTD/svg11.dtd"><svg t="1620805128106" class="icon" viewBox="0 0 1024 1024" version="1.1" xmlns="http://www.w3.org/2000/svg" p-id="3859" xmlns:xlink="http://www.w3.org/1999/xlink" width="48" height="48"><defs><style type="text/css"></style></defs><path d="M511.817 916.387c-60.086 0-146.261-45.515-219.576-115.963-81.086-77.941-127.619-166.845-127.619-243.954V208.143l24.307-0.394c0.855 0 82.381-1.665 166.706-35.709 85.134-34.414 141.125-74.565 141.681-74.958l14.478-10.476 14.663 10.57c0.626 0.462 55.393 40.033 141.544 74.864 84.693 34.182 166.265 35.685 167.099 35.685l23.844 0.394 0.163 348.352c0 77.085-46.534 166.011-127.666 243.929-73.341 70.471-159.538 115.987-219.624 115.987zM213.953 556.472c0 144.988 211.436 310.954 297.864 310.954 86.429 0 297.888-165.988 297.888-310.954V255.346l-10.316-1.11c-36.518-3.932-92.187-13.53-149.938-36.842-58.929-23.845-103.982-49.564-131.435-66.933l-6.199-3.931-6.199 3.931c-22.294 14.155-69.013 41.676-131.366 66.932-57.796 23.313-113.465 32.888-149.961 36.843l-10.315 1.11V556.47l-0.023 0.002z m142.675 4.717l31.823-37.235 97.647 82.66 185.393-212.477 37.258 32.147-217.331 249.134-134.79-114.229z" p-id="3860" fill="#1296db"></path><path d="M511.817 904.799c-116.679 0-335.608-184.537-335.608-348.352V219.522l12.928-0.209c0.578 0 84.278-1.596 170.846-36.542 86.799-35.085 143.578-75.929 144.132-76.322l7.702-5.574 7.91 5.689c0.163 0.116 56.085 40.681 143.971 76.207 86.661 34.968 170.499 36.542 171.309 36.542l12.395 0.208 0.163 336.951c-0.025 163.814-219.045 348.327-335.748 348.327zM499.42 140.724c-21.949 13.947-67.951 41.029-129.493 65.961-56.571 22.804-111.106 32.195-146.884 36.056l-20.652 2.22v311.51c0 153.823 217.193 322.518 309.427 322.518 92.235 0 309.451-168.695 309.451-322.518v-311.51l-20.654-2.219c-35.802-3.862-90.337-13.253-146.862-36.08-58.075-23.498-102.526-48.824-129.586-65.961l-12.396-7.841-12.351 7.864zM372.981 559.871l16.79-19.682 97.553 82.591 185.324-212.406 19.751 17.044-202.207 231.787-117.211-99.334z" p-id="3861" fill="#1296db"></path></svg>