<?xml version="1.0" standalone="no"?><!DOCTYPE svg PUBLIC "-//W3C//DTD SVG 1.1//EN" "http://www.w3.org/Graphics/SVG/1.1/DTD/svg11.dtd"><svg t="1620805414330" class="icon" viewBox="0 0 1024 1024" version="1.1" xmlns="http://www.w3.org/2000/svg" p-id="1889" xmlns:xlink="http://www.w3.org/1999/xlink" width="48" height="48"><defs><style type="text/css"></style></defs><path d="M1024 512c0 281.6-230.4 512-512 512S0 793.6 0 512 230.4 0 512 0s512 230.4 512 512z" fill="#36AAE8" p-id="1890"></path><path d="M697.1392 767.1808L797.696 278.1184c10.069333-41.198933-15.086933-61.781333-45.2608-51.5072L158.856533 458.274133c-40.277333 15.4624-40.277333 41.198933-5.051733 51.473067l150.9376 51.5072 357.1712-231.662933c15.086933-10.308267 30.173867-5.154133 20.138667 5.12L395.264 602.453333l-10.069333 159.607467c15.086933 0 25.156267-5.154133 30.173866-15.4624l75.4688-72.055467 155.9552 118.408534c25.156267 15.428267 45.2608 5.12 50.312534-25.736534z" fill="#FFFFFF" p-id="1891"></path></svg>